<mxfile host="app.diagrams.net" modified="2023-04-11T01:41:33.277Z" agent="Mozilla/5.0 (Windows NT 10.0; Win64; x64) AppleWebKit/537.36 (KHTML, like Gecko) Chrome/111.0.0.0 Safari/537.36 Edg/111.0.1661.62" version="21.1.5" etag="cc3KTiF0SsGcFzmJNn4x" type="github">
  <diagram name="第 1 页" id="-XxW8-eQERsTritN92g8">
    <mxGraphModel>
      <root>
        <mxCell id="0" />
        <mxCell id="1" parent="0" />
      </root>
    </mxGraphModel>
  </diagram>
</mxfile>
